<mxfile host="app.diagrams.net" modified="2020-04-29T17:57:50.228Z" agent="5.0 (Macintosh; Intel Mac OS X 10_15_4) AppleWebKit/537.36 (KHTML, like Gecko) Chrome/81.0.4044.122 Safari/537.36" etag="kvyp2f0vrndbqebOO8CS" version="13.0.3" type="github">
  <diagram id="K9GapVBDPHIvFuJplNbO" name="Page-1">
    <mxGraphModel dx="1940" dy="1783" grid="1" gridSize="10" guides="1" tooltips="1" connect="1" arrows="1" fold="1" page="1" pageScale="1" pageWidth="827" pageHeight="1169" math="0" shadow="0">
      <root>
        <mxCell id="0" />
        <mxCell id="1" parent="0" />
        <mxCell id="MGfbBTOL-nACpGUUXOaL-149" value="" style="rounded=0;whiteSpace=wrap;html=1;fillColor=#ffffff;strokeWidth=3;strokeColor=#000000;opacity=20;glass=1;perimeterSpacing=0;" parent="1" vertex="1">
          <mxGeometry x="260" y="280" width="1280" height="190" as="geometry" />
        </mxCell>
        <mxCell id="MGfbBTOL-nACpGUUXOaL-1" value="CLIENT ENREGISTRÉ" style="shape=umlActor;verticalLabelPosition=bottom;labelBackgroundColor=#ffffff;verticalAlign=top;html=1;outlineConnect=0;fillColor=#dae8fc;strokeColor=#6c8ebf;" parent="1" vertex="1">
          <mxGeometry x="30" y="280" width="30" height="60" as="geometry" />
        </mxCell>
        <mxCell id="MGfbBTOL-nACpGUUXOaL-4" value="" style="endArrow=none;html=1;endFill=0;" parent="1" edge="1">
          <mxGeometry width="50" height="50" relative="1" as="geometry">
            <mxPoint x="70" y="260" as="sourcePoint" />
            <mxPoint x="200" y="90" as="targetPoint" />
          </mxGeometry>
        </mxCell>
        <mxCell id="MGfbBTOL-nACpGUUXOaL-7" value="" style="endArrow=none;html=1;endFill=0;entryX=0;entryY=0.5;entryDx=0;entryDy=0;" parent="1" target="MGfbBTOL-nACpGUUXOaL-9" edge="1">
          <mxGeometry width="50" height="50" relative="1" as="geometry">
            <mxPoint x="200" y="90" as="sourcePoint" />
            <mxPoint x="280" y="80" as="targetPoint" />
          </mxGeometry>
        </mxCell>
        <mxCell id="MGfbBTOL-nACpGUUXOaL-9" value="Accéder au carnet d&#39;adresses" style="ellipse;whiteSpace=wrap;html=1;" parent="1" vertex="1">
          <mxGeometry x="280" y="70" width="210" height="40" as="geometry" />
        </mxCell>
        <mxCell id="MGfbBTOL-nACpGUUXOaL-38" value="" style="endArrow=none;html=1;" parent="1" edge="1">
          <mxGeometry width="50" height="50" relative="1" as="geometry">
            <mxPoint x="70" y="270" as="sourcePoint" />
            <mxPoint x="200" y="160" as="targetPoint" />
          </mxGeometry>
        </mxCell>
        <mxCell id="MGfbBTOL-nACpGUUXOaL-97" value="" style="endArrow=none;html=1;entryX=0;entryY=0.5;entryDx=0;entryDy=0;" parent="1" edge="1">
          <mxGeometry width="50" height="50" relative="1" as="geometry">
            <mxPoint x="200" y="160" as="sourcePoint" />
            <mxPoint x="280" y="160" as="targetPoint" />
          </mxGeometry>
        </mxCell>
        <mxCell id="MGfbBTOL-nACpGUUXOaL-126" value="&lt;font size=&quot;1&quot;&gt;&lt;b style=&quot;font-size: 30px&quot;&gt;Etude de cas d&#39;utilisation : le Client&lt;/b&gt;&lt;/font&gt;" style="text;html=1;strokeColor=none;fillColor=#ffffff;align=center;verticalAlign=middle;whiteSpace=wrap;rounded=0;" parent="1" vertex="1">
          <mxGeometry x="572.5" y="-600" width="555" height="50" as="geometry" />
        </mxCell>
        <mxCell id="MGfbBTOL-nACpGUUXOaL-130" value="&lt;font style=&quot;font-size: 19px&quot;&gt;Site web&lt;/font&gt;" style="text;html=1;align=center;verticalAlign=middle;resizable=0;points=[];autosize=1;" parent="1" vertex="1">
          <mxGeometry x="820" y="20" width="90" height="20" as="geometry" />
        </mxCell>
        <mxCell id="MGfbBTOL-nACpGUUXOaL-135" value="Recevoir un message d&#39;information sur la commande" style="ellipse;whiteSpace=wrap;html=1;" parent="1" vertex="1">
          <mxGeometry x="265" y="350" width="280" height="40" as="geometry" />
        </mxCell>
        <mxCell id="MGfbBTOL-nACpGUUXOaL-137" value="" style="endArrow=none;html=1;" parent="1" edge="1">
          <mxGeometry width="50" height="50" relative="1" as="geometry">
            <mxPoint x="70" y="330" as="sourcePoint" />
            <mxPoint x="200" y="350" as="targetPoint" />
          </mxGeometry>
        </mxCell>
        <mxCell id="MGfbBTOL-nACpGUUXOaL-139" value="" style="endArrow=classic;dashed=1;html=1;exitX=1;exitY=0;exitDx=0;exitDy=0;entryX=0;entryY=0.5;entryDx=0;entryDy=0;endFill=1;" parent="1" source="MGfbBTOL-nACpGUUXOaL-135" target="MGfbBTOL-nACpGUUXOaL-140" edge="1">
          <mxGeometry width="50" height="50" relative="1" as="geometry">
            <mxPoint x="670" y="700" as="sourcePoint" />
            <mxPoint x="660" y="620" as="targetPoint" />
          </mxGeometry>
        </mxCell>
        <mxCell id="MGfbBTOL-nACpGUUXOaL-141" value="&quot;extend&quot;" style="edgeLabel;html=1;align=center;verticalAlign=middle;resizable=0;points=[];" parent="MGfbBTOL-nACpGUUXOaL-139" vertex="1" connectable="0">
          <mxGeometry x="-0.0314" relative="1" as="geometry">
            <mxPoint as="offset" />
          </mxGeometry>
        </mxCell>
        <mxCell id="MGfbBTOL-nACpGUUXOaL-140" value="Recevoir les promotions" style="ellipse;whiteSpace=wrap;html=1;dashed=1;" parent="1" vertex="1">
          <mxGeometry x="590" y="290" width="210" height="40" as="geometry" />
        </mxCell>
        <mxCell id="MGfbBTOL-nACpGUUXOaL-143" value="Recevoir un message de validation&lt;br&gt;" style="ellipse;whiteSpace=wrap;html=1;dashed=1;" parent="1" vertex="1">
          <mxGeometry x="580" y="340" width="210" height="40" as="geometry" />
        </mxCell>
        <mxCell id="MGfbBTOL-nACpGUUXOaL-144" value="" style="endArrow=classic;dashed=1;html=1;entryX=0;entryY=0.5;entryDx=0;entryDy=0;exitX=1;exitY=0.5;exitDx=0;exitDy=0;startArrow=none;startFill=0;endFill=1;" parent="1" source="MGfbBTOL-nACpGUUXOaL-135" target="MGfbBTOL-nACpGUUXOaL-143" edge="1">
          <mxGeometry width="50" height="50" relative="1" as="geometry">
            <mxPoint x="480" y="630" as="sourcePoint" />
            <mxPoint x="530" y="580" as="targetPoint" />
          </mxGeometry>
        </mxCell>
        <mxCell id="MGfbBTOL-nACpGUUXOaL-145" value="&quot;includ&quot;" style="edgeLabel;html=1;align=center;verticalAlign=middle;resizable=0;points=[];" parent="MGfbBTOL-nACpGUUXOaL-144" vertex="1" connectable="0">
          <mxGeometry x="0.1073" y="2" relative="1" as="geometry">
            <mxPoint as="offset" />
          </mxGeometry>
        </mxCell>
        <mxCell id="MGfbBTOL-nACpGUUXOaL-146" value="" style="endArrow=none;dashed=1;html=1;entryX=1;entryY=1;entryDx=0;entryDy=0;endFill=0;startArrow=classic;startFill=1;exitX=0;exitY=0.5;exitDx=0;exitDy=0;" parent="1" source="MGfbBTOL-nACpGUUXOaL-147" target="MGfbBTOL-nACpGUUXOaL-135" edge="1">
          <mxGeometry width="50" height="50" relative="1" as="geometry">
            <mxPoint x="630" y="720" as="sourcePoint" />
            <mxPoint x="710" y="520" as="targetPoint" />
          </mxGeometry>
        </mxCell>
        <mxCell id="MGfbBTOL-nACpGUUXOaL-148" value="&quot;includ&quot;" style="edgeLabel;html=1;align=center;verticalAlign=middle;resizable=0;points=[];" parent="MGfbBTOL-nACpGUUXOaL-146" vertex="1" connectable="0">
          <mxGeometry x="0.1376" y="2" relative="1" as="geometry">
            <mxPoint as="offset" />
          </mxGeometry>
        </mxCell>
        <mxCell id="MGfbBTOL-nACpGUUXOaL-147" value="Recevoir un message d&#39;information sur la livraison" style="ellipse;whiteSpace=wrap;html=1;dashed=1;" parent="1" vertex="1">
          <mxGeometry x="580" y="400" width="210" height="40" as="geometry" />
        </mxCell>
        <mxCell id="MGfbBTOL-nACpGUUXOaL-150" value="&lt;font style=&quot;font-size: 19px&quot;&gt;Batch&lt;/font&gt;" style="text;html=1;align=center;verticalAlign=middle;resizable=0;points=[];autosize=1;" parent="1" vertex="1">
          <mxGeometry x="807.5" y="250" width="60" height="20" as="geometry" />
        </mxCell>
        <mxCell id="MGfbBTOL-nACpGUUXOaL-151" value="" style="endArrow=none;html=1;exitX=0;exitY=0.5;exitDx=0;exitDy=0;" parent="1" source="MGfbBTOL-nACpGUUXOaL-135" edge="1">
          <mxGeometry width="50" height="50" relative="1" as="geometry">
            <mxPoint x="580" y="600" as="sourcePoint" />
            <mxPoint x="200" y="350" as="targetPoint" />
          </mxGeometry>
        </mxCell>
        <mxCell id="OG27PFwJGwJHBfuaEuk7-4" value="" style="endArrow=none;html=1;" parent="1" edge="1">
          <mxGeometry width="50" height="50" relative="1" as="geometry">
            <mxPoint x="80" y="-200" as="sourcePoint" />
            <mxPoint x="200" y="-40" as="targetPoint" />
          </mxGeometry>
        </mxCell>
        <mxCell id="OG27PFwJGwJHBfuaEuk7-5" value="" style="endArrow=none;html=1;" parent="1" edge="1">
          <mxGeometry width="50" height="50" relative="1" as="geometry">
            <mxPoint x="200" y="-40" as="sourcePoint" />
            <mxPoint x="280" y="-41" as="targetPoint" />
          </mxGeometry>
        </mxCell>
        <mxCell id="OG27PFwJGwJHBfuaEuk7-6" value="Créer un compte utilisateur" style="ellipse;whiteSpace=wrap;html=1;" parent="1" vertex="1">
          <mxGeometry x="280" y="-540" width="210" height="40" as="geometry" />
        </mxCell>
        <mxCell id="OG27PFwJGwJHBfuaEuk7-8" value="S&#39;authentifier" style="ellipse;whiteSpace=wrap;html=1;" parent="1" vertex="1">
          <mxGeometry x="280" y="-600" width="210" height="40" as="geometry" />
        </mxCell>
        <mxCell id="OG27PFwJGwJHBfuaEuk7-9" value="Choisir un restaurant" style="ellipse;whiteSpace=wrap;html=1;" parent="1" vertex="1">
          <mxGeometry x="280" y="-290" width="210" height="40" as="geometry" />
        </mxCell>
        <mxCell id="OG27PFwJGwJHBfuaEuk7-10" value="Donner une adresse" style="ellipse;whiteSpace=wrap;html=1;dashed=1;" parent="1" vertex="1">
          <mxGeometry x="570" y="-260" width="210" height="40" as="geometry" />
        </mxCell>
        <mxCell id="OG27PFwJGwJHBfuaEuk7-14" value="" style="edgeStyle=orthogonalEdgeStyle;rounded=0;orthogonalLoop=1;jettySize=auto;html=1;endArrow=none;endFill=0;" parent="1" source="OG27PFwJGwJHBfuaEuk7-12" target="OG27PFwJGwJHBfuaEuk7-13" edge="1">
          <mxGeometry relative="1" as="geometry" />
        </mxCell>
        <mxCell id="OG27PFwJGwJHBfuaEuk7-12" value="Voir les pizzas disponibles" style="ellipse;whiteSpace=wrap;html=1;" parent="1" vertex="1">
          <mxGeometry x="280" y="-210" width="210" height="40" as="geometry" />
        </mxCell>
        <mxCell id="OG27PFwJGwJHBfuaEuk7-13" value="Constituer son panier" style="ellipse;whiteSpace=wrap;html=1;" parent="1" vertex="1">
          <mxGeometry x="560" y="-210" width="210" height="40" as="geometry" />
        </mxCell>
        <mxCell id="OG27PFwJGwJHBfuaEuk7-16" value="Valider son panier" style="ellipse;whiteSpace=wrap;html=1;" parent="1" vertex="1">
          <mxGeometry x="810" y="-210" width="210" height="40" as="geometry" />
        </mxCell>
        <mxCell id="OG27PFwJGwJHBfuaEuk7-20" value="Modifier/annuler sa commande" style="ellipse;whiteSpace=wrap;html=1;" parent="1" vertex="1">
          <mxGeometry x="1370" y="-210" width="210" height="40" as="geometry" />
        </mxCell>
        <mxCell id="OG27PFwJGwJHBfuaEuk7-22" value="Peut suivre l&#39;état de sa commande" style="ellipse;whiteSpace=wrap;html=1;dashed=1;" parent="1" vertex="1">
          <mxGeometry x="1630" y="-140" width="210" height="40" as="geometry" />
        </mxCell>
        <mxCell id="OG27PFwJGwJHBfuaEuk7-23" value="" style="endArrow=classic;html=1;entryX=0;entryY=0.5;entryDx=0;entryDy=0;exitX=1;exitY=0.5;exitDx=0;exitDy=0;dashed=1;" parent="1" source="OG27PFwJGwJHBfuaEuk7-20" target="OG27PFwJGwJHBfuaEuk7-22" edge="1">
          <mxGeometry width="50" height="50" relative="1" as="geometry">
            <mxPoint x="1140" y="130" as="sourcePoint" />
            <mxPoint x="1190" y="80" as="targetPoint" />
          </mxGeometry>
        </mxCell>
        <mxCell id="OG27PFwJGwJHBfuaEuk7-35" value="&quot;include&quot;" style="edgeLabel;html=1;align=center;verticalAlign=middle;resizable=0;points=[];" parent="OG27PFwJGwJHBfuaEuk7-23" vertex="1" connectable="0">
          <mxGeometry x="-0.176" y="1" relative="1" as="geometry">
            <mxPoint as="offset" />
          </mxGeometry>
        </mxCell>
        <mxCell id="OG27PFwJGwJHBfuaEuk7-36" value="Choisir son mode de livraison" style="ellipse;whiteSpace=wrap;html=1;" parent="1" vertex="1">
          <mxGeometry x="280" y="-60" width="210" height="40" as="geometry" />
        </mxCell>
        <mxCell id="OG27PFwJGwJHBfuaEuk7-38" value="Se rendre sur place" style="ellipse;whiteSpace=wrap;html=1;dashed=1;" parent="1" vertex="1">
          <mxGeometry x="560" y="-60" width="210" height="40" as="geometry" />
        </mxCell>
        <mxCell id="OG27PFwJGwJHBfuaEuk7-39" value="" style="endArrow=classic;dashed=1;html=1;exitX=1;exitY=0.5;exitDx=0;exitDy=0;entryX=0;entryY=0.5;entryDx=0;entryDy=0;endFill=1;" parent="1" source="OG27PFwJGwJHBfuaEuk7-36" target="OG27PFwJGwJHBfuaEuk7-38" edge="1">
          <mxGeometry width="50" height="50" relative="1" as="geometry">
            <mxPoint x="690" y="-210" as="sourcePoint" />
            <mxPoint x="550" y="-20" as="targetPoint" />
          </mxGeometry>
        </mxCell>
        <mxCell id="OG27PFwJGwJHBfuaEuk7-42" value="" style="endArrow=none;html=1;entryX=0;entryY=0.5;entryDx=0;entryDy=0;" parent="1" target="OG27PFwJGwJHBfuaEuk7-9" edge="1">
          <mxGeometry width="50" height="50" relative="1" as="geometry">
            <mxPoint x="200" y="-270" as="sourcePoint" />
            <mxPoint x="460" y="-250" as="targetPoint" />
          </mxGeometry>
        </mxCell>
        <mxCell id="OG27PFwJGwJHBfuaEuk7-43" value="" style="endArrow=none;html=1;entryX=0;entryY=0.5;entryDx=0;entryDy=0;" parent="1" target="OG27PFwJGwJHBfuaEuk7-12" edge="1">
          <mxGeometry width="50" height="50" relative="1" as="geometry">
            <mxPoint x="200" y="-190" as="sourcePoint" />
            <mxPoint x="460" y="-250" as="targetPoint" />
          </mxGeometry>
        </mxCell>
        <mxCell id="OG27PFwJGwJHBfuaEuk7-46" value="" style="endArrow=none;html=1;" parent="1" edge="1">
          <mxGeometry width="50" height="50" relative="1" as="geometry">
            <mxPoint x="80" y="-221" as="sourcePoint" />
            <mxPoint x="200" y="-190" as="targetPoint" />
          </mxGeometry>
        </mxCell>
        <mxCell id="OG27PFwJGwJHBfuaEuk7-50" value="" style="endArrow=none;html=1;endFill=0;" parent="1" edge="1">
          <mxGeometry width="50" height="50" relative="1" as="geometry">
            <mxPoint x="80" y="-232" as="sourcePoint" />
            <mxPoint x="200" y="-270" as="targetPoint" />
          </mxGeometry>
        </mxCell>
        <mxCell id="OG27PFwJGwJHBfuaEuk7-53" value="Client" style="shape=umlActor;verticalLabelPosition=bottom;labelBackgroundColor=#ffffff;verticalAlign=top;html=1;outlineConnect=0;fillColor=#dae8fc;strokeColor=#6c8ebf;" parent="1" vertex="1">
          <mxGeometry x="40" y="-260" width="30" height="60" as="geometry" />
        </mxCell>
        <mxCell id="OG27PFwJGwJHBfuaEuk7-58" value="" style="endArrow=classic;html=1;dashed=1;exitX=0.5;exitY=0;exitDx=0;exitDy=0;exitPerimeter=0;" parent="1" edge="1" source="MGfbBTOL-nACpGUUXOaL-1">
          <mxGeometry width="50" height="50" relative="1" as="geometry">
            <mxPoint x="140" y="50" as="sourcePoint" />
            <mxPoint x="45" y="-200" as="targetPoint" />
          </mxGeometry>
        </mxCell>
        <mxCell id="OG27PFwJGwJHBfuaEuk7-59" value="&quot;EXTEND&quot;&lt;br&gt;" style="edgeLabel;html=1;align=center;verticalAlign=middle;resizable=0;points=[];rotation=270;" parent="OG27PFwJGwJHBfuaEuk7-58" vertex="1" connectable="0">
          <mxGeometry x="0.25" y="2" relative="1" as="geometry">
            <mxPoint x="-3" y="35" as="offset" />
          </mxGeometry>
        </mxCell>
        <mxCell id="9LJ6ZO7ZTpFZ964VYEQy-1" value="" style="endArrow=classic;html=1;entryX=0;entryY=0.5;entryDx=0;entryDy=0;exitX=1;exitY=0.5;exitDx=0;exitDy=0;dashed=1;" edge="1" parent="1" source="OG27PFwJGwJHBfuaEuk7-9" target="OG27PFwJGwJHBfuaEuk7-10">
          <mxGeometry width="50" height="50" relative="1" as="geometry">
            <mxPoint x="490" y="-270" as="sourcePoint" />
            <mxPoint x="570" y="-240" as="targetPoint" />
          </mxGeometry>
        </mxCell>
        <mxCell id="9LJ6ZO7ZTpFZ964VYEQy-2" value="&quot;include&quot;" style="edgeLabel;html=1;align=center;verticalAlign=middle;resizable=0;points=[];" vertex="1" connectable="0" parent="9LJ6ZO7ZTpFZ964VYEQy-1">
          <mxGeometry x="-0.169" y="-3" relative="1" as="geometry">
            <mxPoint as="offset" />
          </mxGeometry>
        </mxCell>
        <mxCell id="9LJ6ZO7ZTpFZ964VYEQy-3" value="Visiteur" style="shape=umlActor;verticalLabelPosition=bottom;labelBackgroundColor=#ffffff;verticalAlign=top;html=1;outlineConnect=0;" vertex="1" parent="1">
          <mxGeometry x="40" y="-605" width="30" height="60" as="geometry" />
        </mxCell>
        <mxCell id="9LJ6ZO7ZTpFZ964VYEQy-4" value="" style="endArrow=classic;html=1;dashed=1;" edge="1" parent="1">
          <mxGeometry width="50" height="50" relative="1" as="geometry">
            <mxPoint x="60" y="-520" as="sourcePoint" />
            <mxPoint x="60" y="-270" as="targetPoint" />
          </mxGeometry>
        </mxCell>
        <mxCell id="9LJ6ZO7ZTpFZ964VYEQy-5" value="" style="endArrow=none;html=1;entryX=0;entryY=0.5;entryDx=0;entryDy=0;" edge="1" parent="1" target="OG27PFwJGwJHBfuaEuk7-8">
          <mxGeometry width="50" height="50" relative="1" as="geometry">
            <mxPoint x="80" y="-570" as="sourcePoint" />
            <mxPoint x="280" y="-500" as="targetPoint" />
          </mxGeometry>
        </mxCell>
        <mxCell id="9LJ6ZO7ZTpFZ964VYEQy-6" value="" style="endArrow=none;html=1;entryX=0;entryY=0.5;entryDx=0;entryDy=0;" edge="1" parent="1" target="OG27PFwJGwJHBfuaEuk7-6">
          <mxGeometry width="50" height="50" relative="1" as="geometry">
            <mxPoint x="80" y="-540" as="sourcePoint" />
            <mxPoint x="280" y="-500" as="targetPoint" />
          </mxGeometry>
        </mxCell>
        <mxCell id="9LJ6ZO7ZTpFZ964VYEQy-8" value="Régler" style="ellipse;whiteSpace=wrap;html=1;" vertex="1" parent="1">
          <mxGeometry x="1310" y="-140" width="210" height="40" as="geometry" />
        </mxCell>
        <mxCell id="9LJ6ZO7ZTpFZ964VYEQy-9" value="" style="endArrow=none;dashed=1;html=1;entryX=0;entryY=0.5;entryDx=0;entryDy=0;exitX=1;exitY=0.5;exitDx=0;exitDy=0;" edge="1" parent="1" source="9LJ6ZO7ZTpFZ964VYEQy-31" target="9LJ6ZO7ZTpFZ964VYEQy-8">
          <mxGeometry width="50" height="50" relative="1" as="geometry">
            <mxPoint x="770" y="-70" as="sourcePoint" />
            <mxPoint x="820" y="-120" as="targetPoint" />
          </mxGeometry>
        </mxCell>
        <mxCell id="9LJ6ZO7ZTpFZ964VYEQy-10" value="&quot;extends&quot;" style="edgeLabel;html=1;align=center;verticalAlign=middle;resizable=0;points=[];" vertex="1" connectable="0" parent="9LJ6ZO7ZTpFZ964VYEQy-9">
          <mxGeometry x="-0.1688" y="3" relative="1" as="geometry">
            <mxPoint as="offset" />
          </mxGeometry>
        </mxCell>
        <mxCell id="9LJ6ZO7ZTpFZ964VYEQy-12" value="Être livré" style="ellipse;whiteSpace=wrap;html=1;dashed=1;" vertex="1" parent="1">
          <mxGeometry x="560" y="-10" width="210" height="40" as="geometry" />
        </mxCell>
        <mxCell id="9LJ6ZO7ZTpFZ964VYEQy-13" value="" style="endArrow=classic;html=1;entryX=0;entryY=0.5;entryDx=0;entryDy=0;dashed=1;" edge="1" parent="1" source="OG27PFwJGwJHBfuaEuk7-36" target="9LJ6ZO7ZTpFZ964VYEQy-12">
          <mxGeometry width="50" height="50" relative="1" as="geometry">
            <mxPoint x="510" y="-20" as="sourcePoint" />
            <mxPoint x="560" y="-70" as="targetPoint" />
          </mxGeometry>
        </mxCell>
        <mxCell id="9LJ6ZO7ZTpFZ964VYEQy-14" value="" style="endArrow=none;html=1;dashed=1;entryX=0;entryY=1;entryDx=0;entryDy=0;exitX=1;exitY=0.5;exitDx=0;exitDy=0;endFill=0;startArrow=classic;startFill=1;" edge="1" parent="1" source="MGfbBTOL-nACpGUUXOaL-9" target="9LJ6ZO7ZTpFZ964VYEQy-12">
          <mxGeometry width="50" height="50" relative="1" as="geometry">
            <mxPoint x="510" y="-20" as="sourcePoint" />
            <mxPoint x="560" y="-70" as="targetPoint" />
          </mxGeometry>
        </mxCell>
        <mxCell id="9LJ6ZO7ZTpFZ964VYEQy-15" value="&quot;Extends&quot;&lt;br&gt;" style="edgeLabel;html=1;align=center;verticalAlign=middle;resizable=0;points=[];" vertex="1" connectable="0" parent="9LJ6ZO7ZTpFZ964VYEQy-14">
          <mxGeometry x="-0.0736" y="-1" relative="1" as="geometry">
            <mxPoint as="offset" />
          </mxGeometry>
        </mxCell>
        <mxCell id="9LJ6ZO7ZTpFZ964VYEQy-16" value="Se déconnecter" style="ellipse;whiteSpace=wrap;html=1;" vertex="1" parent="1">
          <mxGeometry x="280" y="140" width="210" height="40" as="geometry" />
        </mxCell>
        <mxCell id="9LJ6ZO7ZTpFZ964VYEQy-17" value="Accéder à l&#39;historique de commande" style="ellipse;whiteSpace=wrap;html=1;" vertex="1" parent="1">
          <mxGeometry x="280" y="220" width="210" height="40" as="geometry" />
        </mxCell>
        <mxCell id="9LJ6ZO7ZTpFZ964VYEQy-18" value="" style="endArrow=none;html=1;entryX=0;entryY=0.5;entryDx=0;entryDy=0;" edge="1" parent="1" target="9LJ6ZO7ZTpFZ964VYEQy-17">
          <mxGeometry width="50" height="50" relative="1" as="geometry">
            <mxPoint x="200" y="240" as="sourcePoint" />
            <mxPoint x="560" y="20" as="targetPoint" />
          </mxGeometry>
        </mxCell>
        <mxCell id="9LJ6ZO7ZTpFZ964VYEQy-20" value="" style="endArrow=none;html=1;" edge="1" parent="1">
          <mxGeometry width="50" height="50" relative="1" as="geometry">
            <mxPoint x="200" y="240" as="sourcePoint" />
            <mxPoint x="70" y="280" as="targetPoint" />
          </mxGeometry>
        </mxCell>
        <mxCell id="9LJ6ZO7ZTpFZ964VYEQy-21" value="Recevoir un message d&#39;information sur la commande" style="ellipse;whiteSpace=wrap;html=1;" vertex="1" parent="1">
          <mxGeometry x="274" y="-360" width="280" height="40" as="geometry" />
        </mxCell>
        <mxCell id="9LJ6ZO7ZTpFZ964VYEQy-22" value="" style="endArrow=none;html=1;entryX=0;entryY=0.5;entryDx=0;entryDy=0;" edge="1" parent="1" target="9LJ6ZO7ZTpFZ964VYEQy-21">
          <mxGeometry width="50" height="50" relative="1" as="geometry">
            <mxPoint x="200" y="-340" as="sourcePoint" />
            <mxPoint x="560" y="-100" as="targetPoint" />
          </mxGeometry>
        </mxCell>
        <mxCell id="9LJ6ZO7ZTpFZ964VYEQy-24" value="Recevoir les promotions" style="ellipse;whiteSpace=wrap;html=1;dashed=1;" vertex="1" parent="1">
          <mxGeometry x="560" y="-410" width="210" height="40" as="geometry" />
        </mxCell>
        <mxCell id="9LJ6ZO7ZTpFZ964VYEQy-25" value="Recevoir un message de validation&lt;br&gt;" style="ellipse;whiteSpace=wrap;html=1;dashed=1;" vertex="1" parent="1">
          <mxGeometry x="572.5" y="-360" width="210" height="40" as="geometry" />
        </mxCell>
        <mxCell id="9LJ6ZO7ZTpFZ964VYEQy-26" value="Recevoir un message d&#39;information sur la livraison" style="ellipse;whiteSpace=wrap;html=1;dashed=1;" vertex="1" parent="1">
          <mxGeometry x="560" y="-310" width="210" height="40" as="geometry" />
        </mxCell>
        <mxCell id="9LJ6ZO7ZTpFZ964VYEQy-27" value="" style="endArrow=none;html=1;exitX=0;exitY=0.5;exitDx=0;exitDy=0;entryX=1;entryY=0;entryDx=0;entryDy=0;dashed=1;" edge="1" parent="1" source="9LJ6ZO7ZTpFZ964VYEQy-24" target="9LJ6ZO7ZTpFZ964VYEQy-21">
          <mxGeometry width="50" height="50" relative="1" as="geometry">
            <mxPoint x="510" y="-150" as="sourcePoint" />
            <mxPoint x="560" y="-200" as="targetPoint" />
          </mxGeometry>
        </mxCell>
        <mxCell id="9LJ6ZO7ZTpFZ964VYEQy-28" value="" style="endArrow=none;html=1;entryX=0;entryY=0.5;entryDx=0;entryDy=0;exitX=1;exitY=0.5;exitDx=0;exitDy=0;dashed=1;" edge="1" parent="1" source="9LJ6ZO7ZTpFZ964VYEQy-21" target="9LJ6ZO7ZTpFZ964VYEQy-25">
          <mxGeometry width="50" height="50" relative="1" as="geometry">
            <mxPoint x="510" y="-150" as="sourcePoint" />
            <mxPoint x="560" y="-200" as="targetPoint" />
          </mxGeometry>
        </mxCell>
        <mxCell id="9LJ6ZO7ZTpFZ964VYEQy-29" value="" style="endArrow=none;html=1;entryX=0;entryY=0.5;entryDx=0;entryDy=0;exitX=1;exitY=1;exitDx=0;exitDy=0;dashed=1;" edge="1" parent="1" source="9LJ6ZO7ZTpFZ964VYEQy-21" target="9LJ6ZO7ZTpFZ964VYEQy-26">
          <mxGeometry width="50" height="50" relative="1" as="geometry">
            <mxPoint x="510" y="-150" as="sourcePoint" />
            <mxPoint x="560" y="-200" as="targetPoint" />
          </mxGeometry>
        </mxCell>
        <mxCell id="9LJ6ZO7ZTpFZ964VYEQy-31" value="Saisir des moyens de contact" style="ellipse;whiteSpace=wrap;html=1;" vertex="1" parent="1">
          <mxGeometry x="1050" y="-210" width="210" height="40" as="geometry" />
        </mxCell>
        <mxCell id="9LJ6ZO7ZTpFZ964VYEQy-32" value="" style="endArrow=none;html=1;entryX=0;entryY=0.5;entryDx=0;entryDy=0;exitX=1;exitY=0.5;exitDx=0;exitDy=0;" edge="1" parent="1" source="9LJ6ZO7ZTpFZ964VYEQy-31" target="OG27PFwJGwJHBfuaEuk7-20">
          <mxGeometry width="50" height="50" relative="1" as="geometry">
            <mxPoint x="1330" y="-210" as="sourcePoint" />
            <mxPoint x="1380" y="-260" as="targetPoint" />
          </mxGeometry>
        </mxCell>
        <mxCell id="9LJ6ZO7ZTpFZ964VYEQy-35" value="" style="endArrow=none;html=1;exitX=1;exitY=0.5;exitDx=0;exitDy=0;entryX=0;entryY=0.5;entryDx=0;entryDy=0;" edge="1" parent="1" source="OG27PFwJGwJHBfuaEuk7-13" target="OG27PFwJGwJHBfuaEuk7-16">
          <mxGeometry width="50" height="50" relative="1" as="geometry">
            <mxPoint x="1050" y="-210" as="sourcePoint" />
            <mxPoint x="1100" y="-260" as="targetPoint" />
          </mxGeometry>
        </mxCell>
        <mxCell id="9LJ6ZO7ZTpFZ964VYEQy-36" value="" style="endArrow=none;html=1;exitX=1;exitY=0.5;exitDx=0;exitDy=0;entryX=0;entryY=0.5;entryDx=0;entryDy=0;" edge="1" parent="1" source="OG27PFwJGwJHBfuaEuk7-16" target="9LJ6ZO7ZTpFZ964VYEQy-31">
          <mxGeometry width="50" height="50" relative="1" as="geometry">
            <mxPoint x="1050" y="-210" as="sourcePoint" />
            <mxPoint x="1100" y="-260" as="targetPoint" />
          </mxGeometry>
        </mxCell>
      </root>
    </mxGraphModel>
  </diagram>
</mxfile>
